# This file uses centimeters as units for non-parametric coordinates.

mtllib Rock01.mtl
g default
v 0.847468 -0.348134 -0.442650
v 0.393637 -0.241548 -0.462360
v 0.000144 -0.266175 -0.446858
v -0.319772 -0.233476 -0.440897
v -0.624691 -0.317357 -0.457352
v 0.912072 -0.163831 -0.552265
v 0.395280 -0.112180 -0.549232
v -0.006314 -0.136082 -0.490284
v -0.362707 -0.114104 -0.509861
v -0.705077 -0.165103 -0.482016
v 1.007779 0.002474 -0.597597
v 0.409016 0.001533 -0.638016
v -0.012294 -0.014512 -0.536326
v -0.388564 -0.019963 -0.520228
v -0.800645 -0.001622 -0.500421
v 0.948124 0.171859 -0.510983
v 0.396148 0.192928 -0.560186
v -0.008200 0.165451 -0.474329
v -0.334355 0.121188 -0.415153
v -0.668412 0.150411 -0.433195
v 0.776056 0.337766 -0.383088
v 0.383624 0.395092 -0.436682
v 0.002926 0.430884 -0.449151
v -0.272086 0.381065 -0.394382
v -0.550487 0.348548 -0.400305
v 0.771468 0.321552 -0.188960
v 0.387061 0.367017 -0.220387
v 0.000385 0.438153 -0.235125
v -0.326164 0.400033 -0.222607
v -0.609417 0.355504 -0.213819
v 0.732745 0.310775 -0.000031
v 0.386099 0.316593 0.000000
v 0.000000 0.349833 0.000000
v -0.375716 0.356417 0.000170
v -0.639810 0.336669 0.000463
v 0.652695 0.291758 0.218813
v 0.351203 0.260810 0.223221
v 0.023382 0.291745 0.233500
v -0.348555 0.321523 0.212826
v -0.609018 0.316799 0.197655
v 0.654105 0.301587 0.435485
v 0.333244 0.203814 0.422176
v 0.044047 0.212058 0.445871
v -0.305957 0.268685 0.415753
v -0.582952 0.303794 0.391986
v 0.772212 0.178275 0.498359
v 0.411252 0.107476 0.502580
v 0.027989 0.097587 0.583800
v -0.350412 0.137518 0.552674
v -0.676598 0.150386 0.445109
v 0.912465 0.010744 0.548161
v 0.470074 -0.002913 0.579506
v 0.002381 -0.004646 0.678716
v -0.388564 0.005522 0.648040
v -0.811300 -0.001283 0.484239
v 0.886057 -0.199802 0.485788
v 0.417708 -0.115649 0.530031
v 0.000000 -0.135521 0.603042
v -0.358284 -0.121778 0.556150
v -0.719182 -0.132906 0.436105
v 0.893149 -0.390676 0.414176
v 0.442547 -0.256463 0.458996
v 0.000000 -0.281088 0.480117
v -0.316874 -0.201775 0.438339
v -0.618507 -0.254875 0.390367
v 1.127643 -0.402516 0.215075
v 0.569809 -0.328669 0.225406
v 0.000000 -0.313409 0.235233
v -0.360781 -0.234882 0.221171
v -0.711642 -0.330260 0.193787
v 1.153894 -0.403217 -0.000057
v 0.517701 -0.414385 0.000000
v 0.000000 -0.378067 0.000000
v -0.388564 -0.340190 -0.000000
v -0.760321 -0.409372 -0.000089
v 1.067576 -0.373724 -0.238450
v 0.445060 -0.347606 -0.238498
v 0.000000 -0.323940 -0.235233
v -0.361061 -0.300564 -0.233534
v -0.696272 -0.376530 -0.230368
v -0.891866 -0.201258 0.222116
v -0.826650 -0.201258 -0.000000
v -0.793399 -0.190785 -0.233598
v -0.873761 -0.000000 0.235233
v -0.874804 -0.000000 -0.000000
v -0.863671 -0.000000 -0.235233
v -0.762187 0.166783 0.223354
v -0.752487 0.177356 -0.000000
v -0.770305 0.185176 -0.229132
v 1.106785 -0.201258 0.246229
v 1.223089 -0.201258 0.000000
v 1.219037 -0.184457 -0.264899
v 0.953700 0.002070 0.272457
v 1.108144 -0.000000 0.000000
v 1.234585 -0.000000 -0.280509
v 0.765016 0.170853 0.247181
v 0.866084 0.150231 0.000000
v 1.044906 0.185628 -0.238692
vt 0.602407 0.467117
vt 0.585500 0.471087
vt 0.585561 0.475907
vt 0.604814 0.473983
vt 0.570841 0.470170
vt 0.570600 0.475017
vt 0.558922 0.471388
vt 0.557323 0.475835
vt 0.547563 0.468263
vt 0.544568 0.473935
vt 0.586073 0.480143
vt 0.608379 0.480178
vt 0.570377 0.479546
vt 0.556360 0.479342
vt 0.541008 0.480026
vt 0.585594 0.487274
vt 0.606157 0.486489
vt 0.570530 0.486250
vt 0.558379 0.484601
vt 0.545934 0.485690
vt 0.585127 0.494805
vt 0.599747 0.492669
vt 0.570944 0.496139
vt 0.560699 0.494282
vt 0.550327 0.493071
vt 0.585255 0.493759
vt 0.599576 0.492065
vt 0.570850 0.496409
vt 0.558684 0.494989
vt 0.548132 0.493330
vt 0.585219 0.491881
vt 0.598133 0.491664
vt 0.570835 0.493119
vt 0.556838 0.493364
vt 0.547000 0.492629
vt 0.583919 0.489802
vt 0.595151 0.490956
vt 0.571706 0.490955
vt 0.557850 0.492064
vt 0.548147 0.491888
vt 0.583250 0.487679
vt 0.595204 0.491322
vt 0.572476 0.487986
vt 0.559437 0.490096
vt 0.549118 0.491404
vt 0.586156 0.484090
vt 0.599604 0.486728
vt 0.571878 0.483722
vt 0.557781 0.485209
vt 0.545629 0.485689
vt 0.588348 0.479978
vt 0.604829 0.480486
vt 0.570924 0.479913
vt 0.556360 0.480292
vt 0.540611 0.480038
vt 0.586397 0.475778
vt 0.603845 0.472643
vt 0.570835 0.475037
vt 0.557488 0.475549
vt 0.544043 0.475135
vt 0.587322 0.470532
vt 0.604109 0.465532
vt 0.570835 0.469614
vt 0.559030 0.472569
vt 0.547793 0.470591
vt 0.592063 0.467842
vt 0.612845 0.465091
vt 0.570835 0.468410
vt 0.557395 0.471336
vt 0.544323 0.467782
vt 0.590122 0.464648
vt 0.613823 0.465065
vt 0.570835 0.466002
vt 0.556360 0.467413
vt 0.542510 0.464835
vt 0.587416 0.467136
vt 0.610607 0.466163
vt 0.570835 0.468018
vt 0.557384 0.468889
vt 0.544896 0.466059
vt 0.537609 0.472588
vt 0.540039 0.472588
vt 0.541278 0.472979
vt 0.538284 0.480086
vt 0.538245 0.480086
vt 0.538660 0.480086
vt 0.542440 0.486300
vt 0.542802 0.486693
vt 0.542138 0.486985
vt 0.612068 0.472588
vt 0.616401 0.472588
vt 0.616250 0.473214
vt 0.606365 0.480163
vt 0.612118 0.480086
vt 0.616829 0.480086
vt 0.599336 0.486451
vt 0.603101 0.485683
vt 0.609763 0.487002
vn 0.101191 -0.831594 -0.546087
vn -0.066535 -0.785092 -0.615796
vn -0.058729 -0.474477 -0.878307
vn 0.276029 -0.488529 -0.827736
vn -0.041456 -0.826502 -0.561405
vn -0.058387 -0.416594 -0.907216
vn 0.049136 -0.777887 -0.626480
vn -0.008363 -0.265146 -0.964172
vn -0.178413 -0.816861 -0.548550
vn -0.503016 -0.393546 -0.769478
vn -0.049559 0.052445 -0.997393
vn 0.397609 0.110960 -0.910821
vn -0.158384 0.084500 -0.983755
vn -0.041654 0.209378 -0.976947
vn -0.558566 0.173512 -0.811109
vn -0.009988 0.434970 -0.900389
vn 0.350197 0.633930 -0.689561
vn -0.164524 0.291937 -0.942181
vn -0.066679 0.305907 -0.949724
vn -0.351718 0.504238 -0.788695
vn 0.080697 0.825764 -0.558213
vn 0.268223 0.882327 -0.386725
vn -0.075946 0.739783 -0.668545
vn -0.166226 0.629162 -0.759292
vn -0.266346 0.604891 -0.750444
vn 0.113266 0.980853 0.158423
vn 0.314966 0.938103 0.144080
vn 0.031934 0.988999 0.144434
vn -0.099620 0.991367 0.085245
vn -0.447140 0.891462 -0.073229
vn 0.063126 0.974443 0.215585
vn 0.294343 0.924428 0.242477
vn 0.056468 0.965933 0.252555
vn -0.035616 0.981273 0.189302
vn -0.428418 0.898157 0.098857
vn -0.013715 0.978206 0.207181
vn 0.217682 0.963890 0.153397
vn 0.077217 0.962418 0.260363
vn 0.038670 0.978778 0.201240
vn -0.364745 0.916589 0.163784
vn -0.029649 0.857205 0.514122
vn 0.124813 0.914781 0.384185
vn 0.077851 0.859675 0.504875
vn 0.022632 0.865325 0.500700
vn -0.277959 0.850171 0.447155
vn 0.032768 0.559505 0.828179
vn 0.382814 0.696890 0.606463
vn 0.069463 0.681232 0.728765
vn -0.102344 0.639045 0.762330
vn -0.464230 0.638131 0.614231
vn 0.096656 0.028951 0.994897
vn 0.506274 0.258139 0.822831
vn 0.057953 0.048481 0.997141
vn -0.209691 0.048205 0.976579
vn -0.625754 0.092635 0.774500
vn 0.089681 -0.443684 0.891685
vn 0.393841 -0.230581 0.889787
vn 0.014318 -0.582674 0.812580
vn -0.181888 -0.621948 0.761642
vn -0.457861 -0.563497 0.687629
vn -0.008362 -0.831119 0.556032
vn 0.096279 -0.861135 0.499175
vn -0.054994 -0.895557 0.441536
vn -0.124555 -0.892634 0.433234
vn -0.095608 -0.879708 0.465803
vn -0.076943 -0.979811 0.184526
vn 0.282087 -0.894442 0.346988
vn -0.086382 -0.959731 0.267311
vn -0.011378 -0.962610 0.270651
vn -0.155450 -0.926832 0.341785
vn -0.038978 -0.999039 0.020036
vn 0.281223 -0.959590 0.010005
vn -0.080608 -0.994454 0.067561
vn 0.043282 -0.992539 0.113991
vn -0.228855 -0.972125 0.050973
vn -0.052216 -0.968499 -0.243479
vn 0.250266 -0.910835 -0.328248
vn -0.055705 -0.961413 -0.269409
vn 0.070097 -0.976047 -0.205959
vn -0.242374 -0.937660 -0.249096
vn -0.845901 -0.461157 0.267929
vn -0.935383 -0.338236 -0.103224
vn -0.889439 -0.388773 -0.240320
vn -0.953911 0.247761 0.169316
vn -0.979012 0.195449 -0.057753
vn -0.975528 0.106151 -0.192557
vn -0.769485 0.621896 0.145389
vn -0.805970 0.591224 0.029426
vn -0.790708 0.589195 -0.166223
vn 0.850767 0.134394 0.508068
vn 0.979343 0.042889 0.197603
vn 0.851566 -0.336391 -0.402090
vn 0.764821 0.574808 0.290940
vn 0.726615 0.597824 0.338581
vn 0.909097 0.364814 -0.201129
vn 0.679023 0.721285 0.136659
vn 0.601264 0.731944 0.320530
vn 0.634923 0.770353 0.058557
s 1
g MiniStage1:Rock3 MiniStage1:FloatingRocks
usemtl MiniStage1:lambert3SG
f 1/1/1 2/2/2 7/3/3 6/4/4
f 2/2/2 3/5/5 8/6/6 7/3/3
f 3/5/5 4/7/7 9/8/8 8/6/6
f 4/7/7 5/9/9 10/10/10 9/8/8
f 6/4/4 7/3/3 12/11/11 11/12/12
f 7/3/3 8/6/6 13/13/13 12/11/11
f 8/6/6 9/8/8 14/14/14 13/13/13
f 9/8/8 10/10/10 15/15/15 14/14/14
f 11/12/12 12/11/11 17/16/16 16/17/17
f 12/11/11 13/13/13 18/18/18 17/16/16
f 13/13/13 14/14/14 19/19/19 18/18/18
f 14/14/14 15/15/15 20/20/20 19/19/19
f 16/17/17 17/16/16 22/21/21 21/22/22
f 17/16/16 18/18/18 23/23/23 22/21/21
f 18/18/18 19/19/19 24/24/24 23/23/23
f 19/19/19 20/20/20 25/25/25 24/24/24
f 21/22/22 22/21/21 27/26/26 26/27/27
f 22/21/21 23/23/23 28/28/28 27/26/26
f 23/23/23 24/24/24 29/29/29 28/28/28
f 24/24/24 25/25/25 30/30/30 29/29/29
f 26/27/27 27/26/26 32/31/31 31/32/32
f 27/26/26 28/28/28 33/33/33 32/31/31
f 28/28/28 29/29/29 34/34/34 33/33/33
f 29/29/29 30/30/30 35/35/35 34/34/34
f 31/32/32 32/31/31 37/36/36 36/37/37
f 32/31/31 33/33/33 38/38/38 37/36/36
f 33/33/33 34/34/34 39/39/39 38/38/38
f 34/34/34 35/35/35 40/40/40 39/39/39
f 36/37/37 37/36/36 42/41/41 41/42/42
f 37/36/36 38/38/38 43/43/43 42/41/41
f 38/38/38 39/39/39 44/44/44 43/43/43
f 39/39/39 40/40/40 45/45/45 44/44/44
f 41/42/42 42/41/41 47/46/46 46/47/47
f 42/41/41 43/43/43 48/48/48 47/46/46
f 43/43/43 44/44/44 49/49/49 48/48/48
f 44/44/44 45/45/45 50/50/50 49/49/49
f 46/47/47 47/46/46 52/51/51 51/52/52
f 47/46/46 48/48/48 53/53/53 52/51/51
f 48/48/48 49/49/49 54/54/54 53/53/53
f 49/49/49 50/50/50 55/55/55 54/54/54
f 51/52/52 52/51/51 57/56/56 56/57/57
f 52/51/51 53/53/53 58/58/58 57/56/56
f 53/53/53 54/54/54 59/59/59 58/58/58
f 54/54/54 55/55/55 60/60/60 59/59/59
f 56/57/57 57/56/56 62/61/61 61/62/62
f 57/56/56 58/58/58 63/63/63 62/61/61
f 58/58/58 59/59/59 64/64/64 63/63/63
f 59/59/59 60/60/60 65/65/65 64/64/64
f 61/62/62 62/61/61 67/66/66 66/67/67
f 62/61/61 63/63/63 68/68/68 67/66/66
f 63/63/63 64/64/64 69/69/69 68/68/68
f 64/64/64 65/65/65 70/70/70 69/69/69
f 66/67/67 67/66/66 72/71/71 71/72/72
f 67/66/66 68/68/68 73/73/73 72/71/71
f 68/68/68 69/69/69 74/74/74 73/73/73
f 69/69/69 70/70/70 75/75/75 74/74/74
f 71/72/72 72/71/71 77/76/76 76/77/77
f 72/71/71 73/73/73 78/78/78 77/76/76
f 73/73/73 74/74/74 79/79/79 78/78/78
f 74/74/74 75/75/75 80/80/80 79/79/79
f 76/77/77 77/76/76 2/2/2 1/1/1
f 77/76/76 78/78/78 3/5/5 2/2/2
f 78/78/78 79/79/79 4/7/7 3/5/5
f 79/79/79 80/80/80 5/9/9 4/7/7
f 70/70/70 65/65/65 60/60/60 81/81/81
f 75/75/75 70/70/70 81/81/81 82/82/82
f 80/80/80 75/75/75 82/82/82 83/83/83
f 5/9/9 80/80/80 83/83/83 10/10/10
f 81/81/81 60/60/60 55/55/55 84/84/84
f 82/82/82 81/81/81 84/84/84 85/85/85
f 83/83/83 82/82/82 85/85/85 86/86/86
f 10/10/10 83/83/83 86/86/86 15/15/15
f 84/84/84 55/55/55 50/50/50 87/87/87
f 85/85/85 84/84/84 87/87/87 88/88/88
f 86/86/86 85/85/85 88/88/88 89/89/89
f 15/15/15 86/86/86 89/89/89 20/20/20
f 87/87/87 50/50/50 45/45/45 40/40/40
f 88/88/88 87/87/87 40/40/40 35/35/35
f 89/89/89 88/88/88 35/35/35 30/30/30
f 20/20/20 89/89/89 30/30/30 25/25/25
f 61/62/62 66/67/67 90/90/90 56/57/57
f 66/67/67 71/72/72 91/91/91 90/90/90
f 71/72/72 76/77/77 92/92/92 91/91/91
f 76/77/77 1/1/1 6/4/4 92/92/92
f 56/57/57 90/90/90 93/93/93 51/52/52
f 90/90/90 91/91/91 94/94/94 93/93/93
f 91/91/91 92/92/92 95/95/95 94/94/94
f 92/92/92 6/4/4 11/12/12 95/95/95
f 51/52/52 93/93/93 96/96/96 46/47/47
f 93/93/93 94/94/94 97/97/97 96/96/96
f 94/94/94 95/95/95 98/98/98 97/97/97
f 95/95/95 11/12/12 16/17/17 98/98/98
f 46/47/47 96/96/96 36/37/37 41/42/42
f 96/96/96 97/97/97 31/32/32 36/37/37
f 97/97/97 98/98/98 26/27/27 31/32/32
f 98/98/98 16/17/17 21/22/22 26/27/27
